<svg width="1440" height="812" viewBox="0 0 1440 812" fill="none" xmlns="http://www.w3.org/2000/svg">
<path d="M1040.37 102.383C1031.38 111.382 1019.67 98.6331 1014.94 91.1338C1000.07 86.0473 1004.51 94.5575 1008.58 99.4484C996.357 111.187 994.4 99.4484 990.977 97.4919C988.238 95.9267 991.466 85.1016 993.422 79.8847C986.379 76.7545 985.923 70.429 986.575 67.6575C981.097 65.7012 972.88 70.7551 969.457 73.5266C980.804 84.091 981.032 90.3187 979.728 92.112C966.033 82.7214 947.285 82.0041 939.622 82.8193C927.884 74.5047 927.395 79.8847 925.928 80.8629C924.46 81.8411 934.242 88.1993 929.84 91.1338C926.319 93.4814 904.897 86.569 894.626 82.8193C889.246 88.1993 874.573 98.9594 869.682 99.4484C864.791 99.9375 867.726 94.0685 863.324 95.0466C858.922 96.0248 859.9 98.9594 858.922 105.807C857.944 112.654 838.381 116.078 836.424 116.078C834.468 116.078 826.153 120.479 822.241 119.501C818.328 118.523 814.415 109.23 815.883 106.785C817.35 104.339 819.795 103.85 827.621 105.807C835.446 107.763 835.935 105.318 838.381 102.383C840.337 100.035 844.739 102.383 846.695 103.85L836.424 96.5138L821.752 92.6011L800.232 86.732L780.668 80.8629C777.929 72.6462 774.31 73.8526 772.843 75.4829L758.659 80.8629L745.943 86.732L729.314 95.0465C721.488 94.264 709.424 102.546 704.37 106.785C698.664 112.654 684.709 124.196 674.535 123.414C664.362 122.631 660.189 126.348 659.374 128.305L656.928 137.597L663.286 145.423L670.134 151.781L681.872 153.737L690.186 154.226L701.924 150.314L704.37 155.205L705.348 165.475L710.728 169.388L717.575 165.475L733.226 155.205L744.964 146.89L737.628 141.51L734.205 136.13V129.772L740.563 124.392L749.366 121.457L752.301 114.61L756.703 109.719L765.995 107.763L767.952 116.078C767.3 118.36 765.311 123.218 762.572 124.392C759.833 125.566 756.54 132.706 755.235 136.13L762.572 137.597C762.572 143.075 769.745 144.771 773.332 144.934C783.114 135.641 785.07 141.51 788.494 143.956C791.917 146.401 784.092 152.759 782.624 154.226C781.157 155.694 772.354 155.694 769.419 155.205C766.485 154.716 765.017 163.03 763.55 165.475C762.083 167.921 752.79 164.497 749.366 164.008C746.627 163.617 748.225 171.019 749.366 174.768C741.932 178.681 743.334 181.615 744.964 182.594L740.563 185.039L697.034 183.572L694.588 179.17L691.654 172.323C691.98 171.019 693.023 167.823 694.588 165.475C696.153 163.128 690.349 162.215 687.252 162.052C687.415 163.193 686.958 165.475 683.828 165.475C680.698 165.475 676.981 172.323 675.514 175.746C675.514 176.072 676.296 178.094 679.426 183.572C683.339 190.419 673.557 190.908 668.666 194.332C664.754 197.071 657.58 196.777 654.483 196.288C654.483 201.179 646.657 201.179 646.657 203.625C646.657 206.07 632.474 216.341 630.028 217.808C628.072 218.982 617.149 219.275 611.932 219.275C610.302 219.764 607.139 221.819 607.53 226.123C607.921 230.427 601.824 231.503 598.726 231.503C598.726 232.97 600.194 236.1 606.063 236.883C611.932 237.665 615.029 246.664 615.845 251.066C617.475 254.327 619.366 261.826 613.888 265.739C607.041 270.63 600.194 258.892 596.77 260.848C593.346 262.804 584.543 259.87 582.097 260.848C580.141 261.631 571.5 258.566 567.425 256.935C567.751 259.707 568.207 265.641 567.425 267.206C566.642 268.771 571.989 270.141 574.761 270.63C575.576 274.869 575.935 283.933 570.848 286.281C564.49 289.215 564.49 295.084 565.468 296.552C566.447 298.019 564.49 301.443 564.49 304.377C564.49 306.725 571.011 306.659 574.272 306.333C573.098 310.246 586.173 314.485 592.857 316.115C602.802 315.789 622.105 314.452 619.757 311.713C617.41 308.975 627.257 298.834 632.474 294.106C628.952 289.02 631.006 282.531 632.474 279.923C636.223 277.477 644.31 272.488 646.657 272.097C649.005 271.706 648.94 267.369 648.614 265.25L665.243 260.848C672.742 259.87 687.741 258.305 687.741 259.87C687.741 261.435 688.393 265.739 688.719 267.695C690.675 269.163 696.349 272.586 703.392 274.543C710.435 276.499 709.261 280.575 707.794 282.368C706.652 284.65 704.174 291.269 703.392 299.486C702.609 307.703 707.304 310.083 709.75 310.246C719.923 315.333 720.51 308.779 719.532 304.866C713.663 300.171 715.456 296.063 717.086 294.595C727.357 291.661 722.956 284.813 719.532 282.368C716.793 280.412 714.804 271.771 714.152 267.695L716.597 263.783C715.782 259.707 715.228 252.534 719.532 256.446C723.836 260.359 732.085 264.924 735.672 266.717C741.932 263.978 747.41 271.445 749.366 275.521C754.453 277.477 752.79 284.813 751.323 288.237L753.279 298.508L758.17 310.735C762.409 313.344 771.375 318.756 773.332 319.539C775.777 320.517 780.668 315.137 782.624 313.181C784.19 311.616 781.32 308.616 779.69 307.312C778.875 306.496 777.734 302.714 779.69 294.106C782.135 283.346 788.983 284.324 792.406 284.813C795.145 285.205 791.917 295.736 789.961 300.953L796.319 308.779C798.764 311.713 804.242 317.485 806.59 317.093C808.938 316.702 813.763 311.713 815.883 309.268L825.664 318.561C831.86 317.909 843.956 317.191 842.783 319.539C841.609 321.886 845.554 326.06 847.673 327.853L841.315 332.744V342.037L839.359 355.732C834.468 358.177 824.882 362.579 825.664 360.622C826.447 358.666 817.839 354.264 813.437 352.308L803.655 353.286L791.428 352.308L777.244 347.417L756.703 341.059L754.257 345.461L755.235 354.753L750.345 359.155L741.541 362.09L740.563 356.71L735.672 353.286H726.868H719.532L716.108 344.972L713.174 341.548L701.924 339.592L692.632 336.168L691.164 331.766L694.588 328.342L692.632 323.452L688.719 317.093L690.186 310.246C687.904 309.105 683.241 306.92 682.85 307.312C682.459 307.703 677.144 312.039 674.535 314.159H659.863L636.876 319.539C632.637 319.376 622.203 320.126 614.377 324.43C606.552 328.734 592.205 324.267 586.01 321.495C583.728 322.962 579.261 325.799 579.652 325.408C580.043 325.017 577.206 330.462 575.739 333.233L555.197 351.33L554.708 363.068L524.385 400.728L504.821 429.095L510.201 440.833L506.777 451.104L508.734 459.419C506.778 459.81 504.332 476.537 503.354 484.851L517.048 504.415C529.569 509.11 525.852 518.762 522.428 523L564.001 557.726L569.87 553.324L576.717 554.302L586.988 549.411L590.901 549.9C593.999 549.9 600.292 549.802 600.683 549.411C601.074 549.02 610.628 548.27 615.356 547.944L621.714 542.075C625.789 541.749 634.626 540.705 637.365 539.14C640.104 537.575 646.005 537.836 648.614 538.162C647.962 539.955 647.342 543.64 650.081 544.031C652.82 544.423 666.873 550.715 673.557 553.813C681.872 550.879 684.806 556.748 686.274 557.726C687.447 558.508 685.784 561.965 684.806 563.595C691.164 563.106 689.208 576.8 688.719 578.268C688.328 579.441 680.405 586.908 676.492 590.495L678.937 608.102L685.784 614.46L695.566 618.373L702.414 631.578C704.207 635.328 708.185 643.512 709.75 646.251C711.315 648.99 709.098 656.522 707.794 659.946C709.261 664.347 712.293 673.542 712.684 675.107C713.076 676.673 704.044 686.519 699.479 691.247L700.946 701.029L698.501 711.3C701.272 715.05 706.326 723.234 704.37 725.973C702.413 728.712 707.793 740.482 710.728 746.025L721.488 761.676L725.401 775.371L720.51 786.131L721.488 795.424L729.803 803.249L733.226 811.564L736.65 824.28L741.541 836.507L749.855 838.953L759.148 834.551L765.017 837.485L778.222 840.42L790.939 837.485L797.786 831.127L808.546 822.324L826.153 809.118L838.381 795.424L834.468 787.109V775.371C836.587 772.436 841.706 767.154 845.228 769.502C848.749 771.849 852.89 764.285 854.521 760.209C854.521 759.035 851.586 751.568 850.119 747.982L854.521 735.265L867.726 722.549C868.378 719.941 871.834 714.039 880.442 711.3C889.05 708.561 892.507 697.769 893.159 692.715L885.333 671.684C887.29 667.934 891.594 660.043 893.159 658.478C894.724 656.913 885.333 651.957 880.442 649.675V639.404L887.29 621.797L893.159 605.657L907.342 590.006L924.46 565.551C928.373 563.106 936.785 558.215 939.133 558.215C941.481 558.215 945.002 549.737 946.469 545.499L952.828 524.468C956.088 517.131 962.512 501.383 962.12 497.079C961.631 491.699 952.828 500.013 951.36 502.459C949.893 504.904 934.242 499.035 933.264 502.459C932.286 505.882 915.168 505.882 910.277 505.882C905.386 505.882 911.744 492.188 906.853 492.677C901.962 493.166 901.473 489.742 901.473 486.319C901.473 482.895 894.626 473.113 890.224 471.646C885.822 470.179 876.04 451.593 877.019 449.148C877.997 446.702 870.66 449.637 868.215 447.191C866.259 445.235 867.4 439.203 868.215 436.431L857.944 424.693C857.944 417.52 856.379 402.782 850.119 401.217C843.858 399.652 840.663 396 839.848 394.37L834.468 387.522C833.816 383.121 832.903 373.632 834.468 370.893C836.033 368.154 843.924 373.991 847.673 377.251L857.944 378.719C866.422 393.391 883.768 422.737 885.333 422.737C887.29 422.737 882.399 436.92 885.333 436.431C888.268 435.942 892.67 449.148 896.093 453.06C898.832 456.191 900.821 454.365 901.473 453.06C905.549 456.647 913.016 464.016 910.277 464.799C906.853 465.777 914.679 493.166 918.591 489.742C922.504 486.319 939.133 481.917 947.937 484.362C956.74 486.808 963.099 475.07 965.055 473.113C966.62 471.548 969.946 470.831 971.413 470.668C971.739 468.711 972.783 464.407 974.348 462.842C976.304 460.886 990.488 463.82 992.444 463.82C994.4 463.82 1001.74 446.213 1002.23 441.811C1002.71 437.41 1013.47 432.03 1015.92 432.03C1017.88 432.03 1016.74 423.226 1015.92 418.824C1004.57 421.172 994.237 407.412 990.488 400.239H982.662C984.292 398.282 986.281 396.13 981.195 403.173C974.837 411.977 960.653 403.173 956.251 404.151C951.849 405.13 943.046 402.195 942.068 396.815C941.285 392.511 932.286 382.958 927.884 378.719L929.84 370.893C940.796 359.155 959.512 375.784 967.5 385.566C974.935 395.739 983.966 392.413 987.553 389.479C992.248 388.305 999.943 392.25 1003.2 394.37L1007.12 403.173C1016.12 408.26 1025.21 403.336 1028.64 400.239C1045.27 396.815 1042.82 406.108 1052.11 405.13C1061.41 404.151 1085.37 417.846 1088.31 419.802C1090.65 421.367 1083.09 426.65 1079.01 429.095L1085.37 435.453C1106.4 426.65 1111.29 434.964 1114.72 438.388C1117.46 441.127 1113.58 456.484 1111.29 463.82C1116.38 461.864 1121.24 477.352 1123.03 485.34C1127.92 497.405 1136.82 522.413 1133.3 525.935C1128.9 530.337 1147.97 540.119 1145.04 530.826C1142.69 523.392 1151.24 515.99 1155.8 513.219C1163.63 508.165 1177.52 497.959 1170.47 497.568C1163.43 497.176 1159.39 486.971 1158.25 481.917C1159.71 483.058 1162.65 482.21 1162.65 469.69C1162.65 457.169 1172.1 460.56 1176.83 463.82C1183.35 461.049 1195.71 455.017 1192.97 453.06C1189.55 450.615 1192.48 441.811 1194.93 440.833C1196.88 440.051 1195.09 433.334 1193.95 430.073C1200.99 435.16 1217.43 425.019 1224.76 419.313C1229.85 430.269 1236.34 433.66 1238.95 433.986C1237.77 441.029 1247.26 450.615 1252.15 454.528L1253.62 467.733C1256.55 471.809 1262.42 478.982 1262.42 475.07C1262.42 471.157 1266.01 468.548 1267.8 467.733C1270.25 470.505 1276.31 476.635 1281.01 478.982C1286.88 481.917 1277.58 507.839 1275.14 507.839C1273.18 507.839 1281.82 529.359 1286.39 540.119C1289.16 540.282 1295 541.977 1296.17 547.455C1297.34 552.933 1305.79 567.345 1309.86 573.866H1319.65C1318.5 571.909 1315.44 567.116 1312.31 563.595C1308.4 559.193 1311.82 557.726 1313.29 552.346C1314.46 548.042 1311.49 547.944 1309.86 548.433L1307.91 543.542L1302.53 531.315C1289.81 523 1292.75 505.393 1296.17 505.393C1298.91 505.393 1297.96 497.894 1297.15 494.144L1303.99 491.209L1310.84 502.459C1317.49 501.676 1323.07 512.893 1325.03 518.599L1336.76 522.022C1335.59 516.936 1347.36 510.447 1353.39 507.839C1363.57 491.405 1358.94 485.014 1355.35 483.873L1342.63 461.864C1323.46 453.647 1326.82 443.442 1330.89 439.366C1329.1 439.04 1328.74 437.507 1341.65 433.986C1354.57 430.465 1351.27 437.736 1348.01 441.811L1352.41 446.213L1358.77 442.79C1354.04 439.04 1350.16 430.66 1372.47 427.139C1400.35 422.737 1393.5 414.422 1411.59 404.151C1426.07 395.935 1417.63 383.447 1411.59 378.23L1414.04 369.426L1404.26 362.09L1403.28 351.33L1395.94 343.504C1380.29 329.418 1389.42 327.853 1395.94 328.832C1402.99 316.311 1388.77 315.789 1380.78 317.093L1369.53 305.355C1368.07 301.606 1366.3 293.519 1371 291.172C1375.69 288.824 1391.54 294.758 1398.88 298.019L1409.15 291.172C1427.25 294.595 1414.04 311.713 1418.93 309.268C1422.84 307.312 1428.71 310.083 1431.16 311.713C1429.2 316.767 1428.22 328.636 1439.96 335.679C1454.63 344.482 1445.83 323.452 1445.83 320.517C1445.83 318.169 1435.07 300.627 1429.69 292.15C1435.07 274.053 1437.52 276.01 1448.77 276.988C1457.76 277.771 1462.62 258.729 1463.93 249.11C1463.44 245.197 1461.77 236.589 1459.04 233.459C1456.3 230.329 1453.33 216.504 1452.19 209.983C1455.71 202.157 1439.64 193.354 1431.16 189.93C1407.68 202.157 1401.81 190.419 1398.88 181.615C1395.94 172.812 1410.13 164.008 1415.51 159.117C1419.81 155.205 1440.78 159.443 1450.72 162.052H1473.22V151.781C1467.74 142.39 1475.5 142.977 1480.07 144.445C1487.5 151.096 1492.95 148.52 1494.74 146.401C1503.35 137.402 1513.65 142.651 1517.73 146.401C1516.59 159.932 1514.21 187.387 1513.81 188.952C1513.42 190.517 1521.48 195.147 1525.55 197.266C1528.29 204.309 1534.84 208.678 1537.78 209.983C1549.13 220.547 1548.7 207.863 1547.07 200.201C1554.51 186.115 1541.04 175.746 1533.38 172.323C1523.2 157.454 1532.07 155.694 1537.78 156.672C1542.47 153.15 1554.73 153.9 1560.28 154.716C1563.7 146.89 1581.8 143.956 1578.86 143.466C1576.52 143.075 1575.28 136.13 1574.95 132.706C1567.12 129.283 1553.23 121.946 1560.28 119.99C1569.08 117.545 1569.08 120.968 1580.82 125.37C1590.21 128.892 1590.28 122.273 1589.13 118.523C1594.68 120.316 1606.06 123.12 1607.23 119.99C1608.7 116.077 1600.38 114.121 1596.47 112.654C1592.56 111.186 1589.13 104.828 1586.69 104.828C1584.24 104.828 1527.51 101.405 1520.66 94.5574C1515.18 89.0796 1495.88 85.4277 1486.91 84.2865C1484.47 83.6344 1480.26 83.9931 1483 90.6447C1485.74 97.2963 1466.21 94.0683 1456.1 91.6229C1451.41 84.58 1446.97 85.1017 1445.34 86.2429C1435.4 87.2211 1413.55 87.4167 1405.73 80.3738C1397.9 73.3309 1391.38 76.4611 1389.1 78.9065C1370.71 84.3843 1345.89 76.6241 1335.79 72.0593C1323.07 65.375 1298.61 53.5717 1302.53 59.832C1306.44 66.0924 1304.81 71.8962 1303.51 74.0156C1303.34 75.6459 1302.33 78.7109 1299.59 77.9284C1296.85 77.1458 1290.95 78.2544 1288.34 78.9065C1281.66 83.4714 1268.39 91.2316 1268.78 85.7538C1269.17 80.276 1253.29 74.3417 1245.3 72.0593C1243.35 62.7666 1226.23 66.6793 1216.94 64.7229C1207.64 62.7666 1201.29 73.5266 1197.37 69.6138C1194.24 66.4836 1188.9 65.7011 1186.61 65.7011C1180.25 67.4944 1167.24 70.0051 1166.07 65.7011C1164.9 61.3971 1154.82 60.9732 1149.93 61.2993C1149.44 56.0823 1146.31 45.9418 1137.7 47.1157C1126.94 48.583 1099.55 37.3338 1094.17 35.8666C1089.87 34.6927 1088.14 41.8987 1087.82 45.6484C1082.73 45.6484 1052.77 49.8871 1038.42 52.0065L1036.46 59.3429L1023.75 64.7229C1026.88 72.5483 1020.81 73.8526 1017.39 73.5266L1013.96 69.1247C1010.05 67.1683 1006.14 72.8744 1004.67 75.972C1005.65 78.5804 1010.25 83.6018 1020.81 82.8193C1031.38 82.0368 1033.36 91.6229 1033.04 96.5137L1040.86 102.872M301.36 595.875C315.055 586.876 318.804 596.038 318.967 601.744C320.761 606.146 325.13 614.265 328.26 611.526C331.39 608.787 349.128 606.146 357.606 605.168C359.399 608.102 363.083 614.754 363.475 617.884C363.964 621.797 371.3 613.971 382.549 621.797C391.548 628.057 389.559 637.121 387.44 640.871C384.669 646.088 377.463 658.087 370.811 664.347C364.159 670.608 362.823 683.259 362.986 688.802L363.964 702.496L360.051 708.855L351.736 720.104L340.976 731.353L333.151 739.178C333.151 740.808 332.466 745.145 329.727 749.449C326.988 753.753 319.457 753.851 316.033 753.362C316.815 756.883 312.772 758.742 310.653 759.231L297.447 759.72L295.98 766.078L298.426 780.262L289.133 798.847C289.133 804.064 288.644 814.302 286.687 813.52C284.731 812.737 275.438 828.193 271.037 836.018C269.569 839.768 264.581 845.8 256.364 839.931C246.093 832.594 241.202 845.8 245.604 842.865C249.125 840.518 254.244 848.734 256.364 853.136C256.364 859.788 244.3 865.037 238.268 866.831C239.833 869.961 229.79 879.547 224.573 883.949C212.834 876.906 214.139 883.623 216.258 887.862C218.215 895.524 220.66 911.827 214.791 915.74C208.922 919.652 218.867 931.717 224.573 937.26C223.758 942.64 221.931 955.649 221.149 964.649C220.366 973.648 245.603 982.419 258.32 985.68C259.624 987.962 259.201 992.038 247.071 990.081C234.942 988.125 230.605 988.288 229.953 988.614L221.149 983.723L212.835 975.409L204.031 969.051L199.14 956.334L192.293 951.932L181.533 947.531L174.197 934.814L171.262 925.522L169.795 918.185L171.262 909.871L166.86 904.002L167.839 898.622V893.242L164.415 885.905C163.437 884.275 161.383 880.917 160.991 880.525C160.6 880.134 157.894 877.428 156.589 876.123L157.079 869.276L154.633 863.407L152.188 859.984C152.677 858.19 153.655 854.408 153.655 853.625C153.655 852.647 155.122 845.8 155.122 844.822C155.122 844.039 155.448 839.931 155.611 837.974C155.774 835.04 156.1 829.073 156.1 828.682C156.1 828.193 153.655 816.454 153.655 815.476C153.655 814.694 152.025 809.607 151.209 807.162C151.535 804.553 152.188 799.238 152.188 798.847C152.188 798.358 150.231 789.065 150.231 788.576C150.231 788.185 147.623 785.479 146.319 784.175C146.808 780.914 147.786 774.295 147.786 773.904C147.786 773.512 147.786 765.915 147.786 762.165C148.601 759.068 150.231 752.677 150.231 751.895C150.231 750.916 147.786 742.602 147.786 741.624C147.786 740.841 147.786 737.711 147.786 736.244C145.829 735.102 141.819 732.722 141.428 732.331C141.036 731.94 138.004 729.233 136.537 727.929L137.026 718.636L134.58 709.833L130.179 702.496C127.57 700.377 122.158 696.04 121.375 695.649C120.397 695.16 114.039 692.715 113.06 692.715C112.278 692.715 109.148 691.41 107.68 690.758C106.213 688.639 103.279 684.302 103.279 683.911C103.279 683.52 99.6919 679.183 97.8986 677.064C96.5944 675.923 93.8881 673.64 93.4968 673.64C93.1055 673.64 91.3774 672.988 90.5622 672.662V661.413C89.258 658.967 86.5517 653.979 86.1604 653.587C85.6714 653.098 81.2695 645.762 81.2695 645.273C81.2695 644.882 79.6392 641.849 78.8241 640.382L72.955 629.622L69.0423 623.264C68.7162 621.144 68.0641 616.808 68.0641 616.417C68.0641 615.928 69.5314 609.08 69.5314 608.591C69.5314 608.102 70.9987 602.722 70.9987 602.233C70.9987 601.842 70.0205 598.809 69.5314 597.342L64.6405 596.364L60.7278 595.386L64.6405 585.604L66.1078 578.757L72.4659 576.311L80.2914 568.486L83.2259 562.617L90.5622 549.9L91.0514 540.119C90.3992 537.673 89.095 532.684 89.095 532.293C89.095 531.804 83.2259 526.913 83.2259 525.935C83.2259 524.957 80.7804 516.642 65.6187 520.555C53.4892 523.685 47.5223 513.056 46.055 507.349L36.2732 499.035L29.9151 491.699L23.5569 491.209L20.6224 486.319H16.7096C16.2205 485.177 15.1445 482.797 14.7533 482.406C14.2642 481.917 6.92784 478.004 6.43875 478.004C5.94966 478.004 2.03692 478.004 1.54783 478.004C1.05874 478.004 -1.8758 473.113 -2.36489 472.624C-2.85398 472.135 -7.74488 470.668 -8.23397 471.157C-8.62524 471.548 -13.614 474.254 -16.0594 475.559C-20.4612 472.95 -29.3627 467.733 -29.7539 467.733C-30.1452 467.733 -41.3291 465.125 -46.8721 463.82C-49.9697 462.516 -56.1648 459.81 -56.1648 459.419C-56.1648 458.93 -67.903 446.702 -68.3921 446.702C-68.7833 446.702 -75.4024 441.485 -78.663 438.877C-79.8042 437.899 -82.7845 435.966 -82.5757 435.453C-82.3616 434.928 -82.3635 427.998 -84.5321 425.182L-85.9993 420.291L-85.5102 411.977L-85.9993 404.151L-94.8029 402.195L-97.7375 395.837L-100.672 386.055L-102.628 379.697C-103.607 378.393 -105.661 375.784 -106.052 375.784C-106.541 375.784 -107.519 386.544 -105.074 389.479C-103.117 391.826 -102.628 398.608 -102.628 401.706C-102.628 404.641 -103.607 410.314 -107.519 409.531C-111.432 408.749 -114.693 404.314 -115.834 402.195L-121.214 391.435L-125.616 379.697L-130.507 370.404L-132.952 369.426L-136.376 356.221L-141.756 346.439L-146.157 335.679L-148.114 319.05L-151.048 312.202L-149.581 308.779L-151.537 303.399L-148.603 296.552C-149.907 294.595 -153.103 290.683 -155.45 290.683C-157.798 290.683 -152.19 283.509 -149.092 279.923L-142.733 266.717L-136.864 252.534L-125.615 235.904L-121.213 228.079L-120.235 211.45L-120.724 201.668L-124.148 183.572V175.257L-129.528 171.345L-129.039 157.65L-127.572 148.846L-128.55 138.576C-134.093 138.249 -145.277 137.597 -145.668 137.597C-146.059 137.597 -152.026 135.967 -154.961 135.152C-159.688 134.663 -169.34 134.761 -170.122 139.065C-170.905 143.369 -181.534 149.988 -186.751 152.759L-207.782 160.095L-222.944 162.052L-233.215 166.943L-239.573 172.812L-251.311 176.235L-270.875 177.703L-291.417 179.17L-300.22 178.681C-303.807 175.746 -306.774 169.779 -289.949 169.388C-273.125 168.997 -252.942 153.248 -244.953 145.423L-256.202 135.641L-255.713 130.75L-238.106 123.414L-218.053 117.545L-210.228 113.632L-222.455 109.23L-221.477 104.339L-217.075 100.916L-208.76 98.9592L-190.175 98.4701L-187.729 89.1774L-173.057 84.2865L-157.406 78.9065L-136.375 72.5484L-125.126 69.6138L-107.519 70.1029L-94.8023 71.0811L-81.1078 75.972L-66.4351 78.9065L-36.1115 82.8193L-16.0588 83.7974L6.92845 82.8193L26.4921 81.8411L34.8066 84.7756L45.5666 80.8629L53.392 78.9065L66.1084 82.8193L79.3138 89.6665L93.9865 90.1556L110.126 89.6665L131.646 90.6447L147.786 91.1338H156.59L165.883 82.8193L171.752 73.5265L179.577 69.1247L190.826 65.212C190.826 66.1902 191.805 68.3422 195.717 69.1247C199.63 69.9073 200.608 72.3853 200.608 73.5265L198.163 83.7974L200.119 89.6665L207.945 91.1338L213.325 93.0901L221.15 87.2211L228.975 88.6883L233.866 90.6447L229.954 101.405C226.856 104.339 220.563 110.306 220.172 110.697C219.781 111.089 213.162 115.425 209.901 117.545L170.285 116.077L163.437 119.501L159.036 127.816L156.59 133.685L127.245 138.576C124.147 140.532 117.952 144.542 117.952 144.934C117.952 145.325 115.67 149.662 114.528 151.781L117.952 158.139L126.266 161.074L136.048 168.41L154.634 176.725L156.101 182.105L149.743 186.995L151.21 192.865L159.525 198.245L162.459 199.712L170.774 193.843L176.154 189.441L177.132 180.148L182.512 175.746L194.25 167.432L201.097 163.03L205.01 152.759V148.846L213.325 143.956L221.639 136.13V129.772H226.041L235.334 130.75C238.431 131.402 244.92 132.706 246.094 132.706C247.267 132.706 252.778 136.945 255.386 139.065L254.408 148.846C258.81 152.759 268.787 159.02 273.483 152.759C278.178 146.499 285.221 145.912 288.155 146.401L290.112 157.65L292.068 170.855L291.09 186.017L294.514 189.441L304.784 192.375L306.252 198.245L298.915 205.092L288.155 213.895L274.461 217.319H258.81L249.028 221.232L246.094 232.481L251.474 233.459L263.212 237.372L267.614 245.686L264.679 249.11L251.474 256.446L227.997 265.739L221.15 258.892L216.259 253.512L209.412 256.446L198.652 262.315L189.359 270.141L178.11 275.521L167.35 278.944L163.926 286.77L162.459 297.041L151.699 298.997L147.297 308.29L134.58 322.473L122.354 330.299L108.17 340.57L104.746 351.819L91.5404 363.068L93.0083 374.317C93.1714 377.251 92.9105 384.392 90.5629 389.479C88.2153 394.565 83.7156 394.207 81.7593 393.391L75.8902 385.566L71.4884 369.915L65.6193 370.893L55.8369 367.47L50.9466 363.068L44.0993 358.177L40.1866 363.068L35.7842 368.448L31.3823 370.893L27.4696 368.448L25.0242 364.535L17.1987 361.601L8.88419 365.024L-2.36489 368.448L-6.76669 373.339L-13.614 380.675L-21.9285 389.968L-28.2867 397.793L-33.6667 404.151L-32.6885 410.021L-28.2867 421.759L-24.863 426.65L-19.483 434.475L-13.614 440.833L-4.81033 437.899L4.97147 435.942L13.286 432.519L15.7314 426.65C24.7307 414.129 27.3066 421.107 27.4696 426.161V436.92L25.5133 445.724L20.6224 455.017L26.0023 458.44L32.8496 461.864L39.6969 458.44L45.566 461.864C51.0438 459.125 56.3259 459.093 58.2823 459.419V465.288L57.7932 472.135C57.4672 473.765 56.815 477.124 56.815 477.515C56.815 477.906 56.815 483.873 56.815 486.808L54.8587 497.079L56.815 499.524L59.2605 504.415V510.284L63.6623 511.751H70.5095L82.7368 512.729L90.5622 517.62L100.833 516.642C101.974 516.153 104.452 515.077 105.235 514.686C106.213 514.197 109.148 512.73 109.148 511.751C109.148 510.969 109.148 510.447 109.148 510.284C109.474 509.143 110.224 506.763 110.615 506.371C111.006 505.98 111.756 503.6 112.082 502.459L115.017 503.926L117.462 504.904C119.093 504.089 122.451 502.459 122.842 502.459C123.233 502.459 124.309 500.828 124.799 500.013L127.244 497.079L129.689 499.035H133.113L137.515 495.611L141.917 490.231L146.319 491.209L149.742 499.035C150.72 500.013 152.775 502.067 153.166 502.459C153.557 502.85 159.198 503.926 161.969 504.415C164.904 504.415 170.871 504.415 171.262 504.415C171.751 504.415 181.044 503.437 182.022 503.437C182.805 503.437 185.283 504.415 186.424 504.904C188.054 506.208 191.315 508.915 191.315 509.306C191.315 509.795 195.717 514.197 196.206 514.686C196.695 515.175 201.586 516.642 202.075 517.131C202.466 517.523 207.129 517.294 209.411 517.131L212.835 520.555L211.857 528.869L216.258 531.315L222.128 535.228L225.551 542.075L227.508 541.097C229.464 541.097 233.474 541.097 233.866 541.097C234.257 541.097 242.506 541.097 246.582 541.097L254.408 542.075C256.527 543.379 260.863 545.988 261.255 545.988C261.646 545.988 264.678 549.248 266.146 550.879L266.635 559.193L271.526 566.04L272.015 570.931L268.102 577.289L265.167 585.115V590.984L270.547 592.451L273.971 585.115H278.373L285.22 588.538L283.264 594.408L289.133 596.853L301.36 596.364M155.611 448.659H148.764C147.134 448.333 143.677 447.778 142.895 448.17C141.917 448.659 136.048 450.126 134.58 450.615C133.407 451.006 130.505 451.43 129.2 451.593L128.711 449.637L132.624 445.724L129.2 440.833V436.92L134.091 433.986H139.471L142.895 437.899L148.764 439.855L156.1 440.344L160.502 440.833L156.1 448.17M950.871 686.846C949.567 689.454 946.567 694.671 945.002 694.671C943.046 694.671 938.155 702.496 934.731 702.986C931.992 703.377 923.808 707.387 920.059 709.344C917.124 715.05 911.451 726.853 912.233 728.418C913.211 730.375 919.569 732.331 916.635 739.178C913.7 746.025 908.81 760.209 908.81 761.676C908.81 762.85 909.788 771.295 910.277 775.371C911.907 775.534 915.755 775.762 918.102 775.371C920.45 774.98 927.884 772.273 931.308 770.969L939.133 747.982L945.002 726.951L952.339 707.387L954.784 688.802L950.871 686.846ZM1503.54 286.77C1502.57 289.867 1500.9 297.628 1502.08 303.888C1503.54 311.713 1502.08 324.43 1489.36 328.832C1484.79 327.853 1475.47 327.071 1474.69 331.766C1473.9 336.461 1467.51 343.504 1464.42 346.439C1463.93 348.721 1463.34 353.482 1464.91 354.264C1466.86 355.242 1473.71 353.775 1474.2 356.221C1474.69 358.666 1480.56 343.015 1484.96 344.482C1489.36 345.95 1505.01 337.635 1505.5 336.168C1505.99 334.701 1516.75 336.657 1517.73 331.277C1518.51 326.973 1518.38 318.072 1518.22 314.159L1515.28 308.29L1516.75 304.866C1514.3 303.399 1509.71 300.269 1510.88 299.486C1512.35 298.508 1510.39 297.53 1515.28 294.106C1520.17 290.683 1504.03 281.39 1503.54 286.77ZM1270.25 545.009C1271.55 551.205 1274.75 564.182 1277.09 566.529C1279.44 568.877 1291.77 589.68 1297.64 599.788L1307.91 619.351C1309.54 617.884 1314.95 618.471 1323.56 632.557C1329.75 632.23 1341.26 629.329 1337.74 620.329C1333.34 609.08 1329.92 617.395 1329.92 602.722C1329.92 590.984 1311 586.093 1301.55 585.115L1295.19 571.909L1279.05 550.879L1270.25 545.009ZM1397.9 541.097C1397.41 547.129 1395.26 559.78 1390.56 562.128C1384.69 565.062 1388.61 570.931 1382.74 571.909C1376.87 572.888 1364.15 573.866 1360.24 579.246C1357.11 583.55 1360.57 590.169 1362.69 592.94L1365.62 608.102L1378.83 614.949L1397.9 616.417L1404.75 612.504C1404.91 607.613 1405.53 597.929 1406.7 598.32C1408.17 598.809 1416 589.517 1419.42 587.56C1422.16 585.995 1421.87 581.365 1421.38 579.246C1419.75 578.757 1416.49 577.289 1416.49 575.333C1416.49 572.888 1416 567.018 1420.4 567.508C1423.92 567.899 1421.87 558.215 1420.4 553.324C1421.05 549.411 1421.18 541.781 1416.49 542.564C1411.79 543.347 1404.42 541.912 1401.32 541.097H1397.9ZM1438.01 579.246C1437.52 583.811 1436.15 592.94 1434.58 592.94C1432.63 592.94 1430.18 606.146 1433.6 612.504C1432.14 620.003 1430.08 634.806 1433.6 634.024C1437.12 633.241 1438.98 627.503 1439.47 624.731C1439.96 623.427 1442.02 622.286 1446.32 628.155C1449.25 627.503 1455.22 625.905 1455.61 624.731C1456.79 621.992 1453.82 618.047 1452.19 616.417C1448.93 615.764 1442.6 614.265 1443.39 613.482C1444.17 612.699 1442.41 603.048 1441.43 598.32C1443.06 594.081 1446.91 585.8 1449.25 586.582C1452.19 587.56 1454.15 590.984 1457.08 586.582C1459.43 583.061 1459.69 580.876 1459.53 580.224L1446.32 579.246H1438.01ZM1634.62 670.706C1626.47 660.598 1605.67 643.903 1587.67 657.989C1585.55 660.272 1578.28 662.391 1566.15 652.609C1554.02 642.827 1553.59 637.121 1554.9 635.491C1552.45 632.067 1546 625.807 1539.74 628.155C1535.66 621.797 1525.36 609.961 1516.75 613.482C1514.14 605.331 1510.78 590.104 1518.22 594.408C1525.65 598.712 1531.42 603.374 1533.38 605.168C1538.43 603.048 1550.1 599.69 1556.37 603.211C1562.63 606.733 1579.84 611.526 1587.67 613.482L1612.12 621.307V629.622C1616.85 634.676 1626.7 644.882 1628.26 645.273C1629.83 645.664 1634.13 655.218 1636.09 659.946C1636.9 663.532 1637.75 670.706 1634.62 670.706ZM956.251 294.595C955.925 297.53 955.86 303.497 958.208 303.888C960.556 304.279 962.773 308.29 963.588 310.246L962.121 316.604C960.001 318.561 955.078 322.082 952.339 320.517C949.6 318.952 948.915 315.952 948.915 314.648L936.199 311.224H931.797C928.047 307.638 921.037 299.877 922.993 297.53C925.439 294.595 929.352 276.988 926.906 276.01C924.95 275.227 917.939 265.25 914.679 260.359L925.928 240.306C932.286 239.491 945.394 238.35 946.959 240.306C948.915 242.752 957.719 254.49 952.339 257.424C946.959 260.359 942.068 256.935 942.068 260.359C942.068 263.783 944.024 270.141 945.491 270.141C946.959 270.141 960.164 271.119 960.164 273.564C960.164 276.01 965.055 285.792 963.588 287.259C962.414 288.433 958.208 292.639 956.251 294.595ZM896.093 277.966L878.975 270.141C877.834 266.554 873.497 260.261 865.281 263.783C857.064 267.304 851.749 254.816 850.119 248.132C846.206 249.436 837.99 252.729 836.424 255.468C834.468 258.892 824.197 246.664 825.664 246.664C827.132 246.664 824.197 232.481 812.459 248.132C803.068 260.652 799.743 265.739 799.254 266.717C798.601 270.467 797.688 277.966 799.254 277.966C801.21 277.966 807.079 278.944 805.612 281.39C804.438 283.346 803.818 286.118 803.655 287.259C805.612 290.193 810.698 293.813 815.394 284.813C820.089 275.814 829.088 282.694 833.001 287.259C836.424 282.531 843.761 273.662 845.717 276.01C848.163 278.944 852.075 282.857 857.944 282.857C863.813 282.857 869.193 284.324 875.063 282.857C880.932 281.39 881.421 288.726 885.823 285.792C889.344 283.444 894.137 279.596 896.093 277.966ZM1574.46 680.976C1572.83 693.856 1568.89 719.517 1566.15 719.126C1563.7 721.897 1557.05 727.733 1550.01 728.907C1542.96 730.081 1532.07 719.289 1527.51 713.746C1527.02 710.159 1526.73 702.692 1529.47 701.518C1532.89 700.051 1537.29 701.029 1538.76 696.138C1540.23 691.247 1540.23 684.889 1536.31 685.378C1533.18 685.77 1524.9 683.911 1521.15 682.933L1506.97 680.976C1504.2 683.096 1498.95 687.922 1500.12 690.269C1501.59 693.204 1492.78 700.051 1489.85 699.562C1486.91 699.073 1475.67 702.986 1472.73 699.562C1469.8 696.138 1467.84 690.758 1462.46 696.138C1457.08 701.518 1456.1 722.06 1440.45 725.973C1431.16 728.581 1412.28 734.776 1411.11 738.689C1409.93 742.602 1392.03 748.797 1383.23 751.405L1371 754.34L1369.53 773.904L1366.6 787.598V798.358L1359.75 813.031L1361.22 823.791L1359.75 840.42L1358.28 853.136L1366.6 852.158L1379.8 846.778L1387.14 844.822L1405.24 846.778L1421.38 844.822C1424.47 842.05 1432.14 836.116 1438.01 834.551C1443.87 832.986 1451.86 828.682 1455.12 826.725L1462.46 821.345L1475.18 823.791L1481.53 826.725L1478.6 839.442L1484.96 846.778L1492.29 843.354L1500.12 840.42H1508.92L1511.37 846.778L1506.48 853.136L1504.03 858.516C1504.68 859.983 1507.06 862.722 1511.37 861.94C1515.67 861.157 1514.14 868.787 1512.84 872.7C1517.07 875.797 1525.94 881.797 1527.51 881.014C1529.07 880.232 1532.07 876.449 1533.38 874.656C1536.31 875.471 1542.57 877.004 1544.14 876.613C1545.7 876.221 1551.31 876.449 1553.92 876.613C1557.18 877.428 1564.48 877.786 1567.61 872.7C1570.74 867.613 1576.09 863.407 1578.37 861.94L1590.11 851.669L1600.87 845.311V837.974L1605.27 826.725L1615.55 823.791C1620.11 823.791 1629.34 821.345 1629.73 811.564C1634.29 805.858 1643.03 794.152 1641.47 792.978C1639.51 791.511 1627.77 787.598 1629.73 784.175C1631.68 780.751 1635.6 770.969 1632.66 769.502C1630.32 768.328 1625.82 761.839 1623.86 758.742C1620.6 758.905 1613.98 758.644 1613.59 756.296C1613.2 753.949 1608.86 744.884 1606.74 740.645L1605.27 728.907L1599.41 719.126V710.322L1597.94 696.138L1591.09 688.313L1582.29 682.933L1574.46 680.976ZM1538.27 893.731C1538.76 898.622 1535.63 908.892 1519.19 910.849C1502.76 912.805 1516.91 901.882 1526.04 896.176C1527.18 896.991 1530.05 898.23 1532.4 896.665C1534.75 895.1 1537.29 894.057 1538.27 893.731ZM1725.1 867.809C1724.61 875.797 1722.95 891.579 1720.21 890.796C1717.47 890.014 1707.66 894.383 1703.09 896.665L1683.04 903.512L1664.45 916.229L1650.76 926.011C1650.11 929.271 1645.97 936.379 1634.62 938.727C1623.27 941.075 1637.72 944.27 1646.36 945.574L1665.43 932.369L1679.62 922.587L1698.69 911.827C1702.11 911.664 1710.33 910.164 1715.81 905.469C1721.29 900.774 1731.46 898.295 1735.86 897.643L1743.2 888.351C1743.85 886.068 1743.3 881.406 1735.86 881.014C1728.43 880.623 1732.76 869.113 1735.86 863.407L1725.1 867.809ZM598.726 180.148C595.955 183.083 590.901 189.539 592.857 191.886C594.814 194.234 589.108 199.06 586.01 201.179C583.076 204.277 576.228 209.983 572.316 208.026C568.403 206.07 570.033 201.994 571.337 200.201L572.316 189.441L584.543 185.039L592.857 177.703L598.726 180.148ZM611.932 157.65C611.443 154.879 609.291 150.998 604.596 157.65C605.574 161.563 606.943 169.584 604.596 170.366C602.248 171.149 605.574 174.931 607.53 176.725L614.866 181.615C615.845 182.92 617.41 185.919 615.845 187.485C614.28 189.05 612.584 192.049 611.932 193.354L602.639 196.288L594.325 202.646L595.303 212.917C597.748 212.265 603.324 210.667 606.063 209.494C608.802 208.32 613.073 210.635 614.866 211.939L622.203 207.048L628.561 206.07L634.919 201.179L638.832 193.354C641.603 187.158 644.994 175.159 636.386 176.725L623.67 171.345L615.845 167.432L611.443 162.541L611.932 157.65ZM114.039 433.986L108.17 435.942C105.235 435.453 99.2681 434.475 98.8768 434.475C98.4855 434.475 94.1489 435.453 92.0295 435.942L89.095 434.475L84.6932 430.562L79.3132 426.65L74.9114 423.715L70.5095 419.313L62.6841 426.65C59.5865 425.671 53.8805 422.835 55.8369 419.313C57.7932 415.792 65.1296 414.585 68.5532 414.422L84.6932 413.444L91.5404 418.335L101.322 421.759L112.082 426.65L115.995 430.562L114.039 433.986ZM66.1084 63.7447L51.9248 68.1466L43.6102 68.6356L42.1429 63.7447L49.4793 61.7884L59.7502 56.4084L71.4884 49.5611L76.8684 46.6266L89.5847 51.5175L102.79 57.3866L113.061 59.832L123.332 56.4084C123.495 52.4957 121.082 45.5506 110.126 49.072C99.1709 52.5935 99.0404 43.0399 100.345 37.823L106.214 34.3993L109.148 30.9757L120.886 37.823L133.603 41.2466L141.428 32.9321L152.677 29.0193L158.057 29.9975L152.188 39.2902L150.721 45.1593H160.992C164.416 46.3005 169.502 49.3655 162.459 52.4957C153.656 56.4084 143.385 56.4084 142.406 57.3866C141.624 58.1691 136.211 60.6472 133.603 61.7884C133.44 64.2338 133.701 69.3204 136.048 70.1029C138.396 70.8855 128.549 76.2981 123.332 78.9065L110.126 80.8629C103.931 81.0259 91.4432 81.2542 91.052 80.8629C90.6607 80.4716 84.6938 81.352 81.7593 81.8411L74.912 78.9065V70.1029L66.1084 63.7447ZM264.679 91.1338L272.994 86.732L267.124 78.9065L256.364 74.9938C253.919 74.1787 248.735 72.5484 247.561 72.5484C246.094 72.5484 239.735 73.5265 238.268 73.5265C237.094 73.5265 229.628 73.5265 226.041 73.5265L220.172 72.5484L217.237 63.7447L220.172 57.8757L231.421 56.4084L233.866 60.8102V67.6575L243.159 65.212L249.517 60.8102L257.832 63.7447H262.234L260.277 58.8538L268.592 57.8757V53.4739L275.439 56.4084L278.374 65.212L280.819 69.1247L288.155 70.592L296.959 69.1247L301.85 70.592L299.894 78.9065L301.85 85.7538L307.23 89.6665L317.012 95.5356L326.304 99.4483L322.881 107.274L302.828 103.361L303.806 107.274L298.915 114.121H286.688L282.286 122.925V129.772L267.124 128.305L262.234 121.946L259.788 113.632H243.159L232.399 115.099L235.334 105.806L250.495 104.828L262.234 101.405L264.679 91.1338ZM368.855 3.58666L326.304 2.11939L313.588 3.58666L298.915 2.11939C295.818 5.05393 289.329 11.0208 288.155 11.4121C286.688 11.9012 270.059 12.8794 268.592 13.3685C267.418 13.7597 251.148 14.8357 243.159 15.3248L239.735 23.6394L252.941 27.5521L256.364 37.3339L267.614 38.3121L278.374 37.3339L285.71 41.7357L296.959 34.3993L311.143 25.1066H322.881L332.663 18.7485L339.999 13.3685L354.672 18.7485L365.432 11.4121L368.855 3.58666ZM369.833 25.1066C365.106 25.7587 355.454 27.2586 354.672 28.0412C353.889 28.8237 344.564 30.6496 339.999 31.4648H330.706L328.75 36.8448L335.108 40.7575L345.868 39.7793H355.65L360.052 37.823L375.703 42.7139L386.462 49.072L388.908 54.452L383.528 61.2993L384.506 69.1247V74.9938L379.615 80.8629C377.007 81.352 371.79 82.5258 371.79 83.3083C371.79 84.0909 372.768 88.5253 373.257 90.6447L370.812 100.427L365.432 107.274L373.257 118.523L378.637 130.261L389.886 144.934L400.646 137.108L412.873 123.414L424.612 115.099L431.948 116.077L444.175 110.697L455.424 109.23L463.25 102.872L466.673 94.5574L477.433 91.6229L496.019 88.1992L518.517 83.7974L522.919 79.3956L518.517 73.5265L526.342 66.1902V59.832L540.526 55.9193L551.775 51.0284C552.753 49.072 554.807 45.0615 555.199 44.6702C555.59 44.279 558.948 37.3339 560.579 33.9102L571.339 26.5739L585.033 25.1066L591.88 18.7485L580.142 13.8576H567.426L563.513 5.54302C561.557 3.91272 557.155 0.65212 555.199 0.65212C552.753 0.65212 538.57 -0.81515 537.102 0.65212C535.635 2.11939 526.831 6.52136 525.853 6.03219C524.875 5.54302 515.093 6.03219 513.626 6.03219C512.159 6.03219 503.355 9.45582 502.377 9.45582C501.594 9.45582 486.726 9.45582 479.39 9.45582H458.848L427.057 7.01037L412.384 9.45582H398.69L386.462 7.01037L379.615 11.4121L372.279 19.2376L369.833 25.1066ZM546.395 105.317L539.548 110.697L516.561 103.85L513.137 109.23L522.43 116.567L532.7 125.37L549.329 122.925L560.579 117.545V109.23L564.002 105.317L556.177 99.9375L549.329 105.317H546.395Z" stroke="#686666" stroke-width="2.27428"/>
</svg>
