<svg width="310" height="92" viewBox="0 0 310 92" fill="none" xmlns="http://www.w3.org/2000/svg">
<path d="M48.3468 20.3228V31.5538H30.912V73.8038H16.4721V31.5538H0V20.3228H16.4721V18.5044C16.4721 12.7998 18.0409 8.30739 21.1785 5.02722C24.316 1.67574 29.4502 0 36.581 0H48.3468V11.231H38.6133C33.4791 11.231 30.912 13.6555 30.912 18.5044V20.3228H48.3468Z" fill="white"/>
<path d="M67.1103 73.8038H52.6704V20.3228H67.1103V73.8038ZM51.6008 8.23607C51.6008 5.95422 52.3852 4.0289 53.954 2.46013C55.594 0.820042 57.555 0 59.8369 0C62.1187 0 64.044 0.820042 65.6128 2.46013C67.2529 4.0289 68.0729 5.95422 68.0729 8.23607C68.0729 10.5179 67.2529 12.4789 65.6128 14.119C64.044 15.6878 62.1187 16.4721 59.8369 16.4721C57.555 16.4721 55.594 15.6878 53.954 14.119C52.3852 12.4789 51.6008 10.5179 51.6008 8.23607Z" fill="white"/>
<path d="M72.4124 20.3228H86.3175V29.0937H86.8523C87.8506 27.1683 89.0985 25.4213 90.596 23.8525C91.9508 22.569 93.6265 21.3924 95.6232 20.3228C97.6911 19.2532 100.223 18.7183 103.217 18.7183C106.997 18.7183 110.099 19.2888 112.523 20.4297C114.948 21.5707 116.873 23.1394 118.299 25.1361C119.797 27.1327 120.831 29.4859 121.401 32.1956C121.971 34.9053 122.257 37.7932 122.257 40.8595V73.8038H107.924V43.9614C107.924 39.3264 107.211 35.9392 105.785 33.8C104.43 31.5894 102.041 30.4842 98.6181 30.4842C94.7675 30.4842 91.8438 31.7321 89.8472 34.2278C87.8506 36.6523 86.8523 40.5742 86.8523 45.9936V73.8038H72.4124V20.3228Z" fill="white"/>
<path d="M181.046 73.8038H167.141V66.6373H166.606C165.607 68.2774 164.36 69.7392 162.862 71.0228C161.507 72.0924 159.796 73.0907 157.728 74.0177C155.731 74.9447 153.236 75.4082 150.241 75.4082C146.39 75.4082 143.003 74.6238 140.079 73.055C137.156 71.4863 134.731 69.4183 132.806 66.8512C130.881 64.2128 129.419 61.1823 128.42 57.7595C127.493 54.3367 127.03 50.7713 127.03 47.0633C127.03 43.3553 127.493 39.7899 128.42 36.3671C129.419 32.9443 130.881 29.9494 132.806 27.3823C134.731 24.7439 137.156 22.6403 140.079 21.0715C143.003 19.5027 146.39 18.7183 150.241 18.7183C153.093 18.7183 155.517 19.1105 157.514 19.8949C159.511 20.608 161.151 21.428 162.434 22.3551C163.932 23.4247 165.18 24.6369 166.178 25.9918H166.606V4.27848H181.046V73.8038ZM167.141 47.0633C167.141 44.6388 166.891 42.3569 166.392 40.2177C165.893 38.0785 165.108 36.2245 164.039 34.6557C162.969 33.0156 161.614 31.7321 159.974 30.8051C158.405 29.878 156.516 29.4145 154.305 29.4145C152.095 29.4145 150.169 29.878 148.529 30.8051C146.96 31.7321 145.641 33.0156 144.572 34.6557C143.502 36.2245 142.718 38.0785 142.218 40.2177C141.719 42.3569 141.47 44.6388 141.47 47.0633C141.47 49.4877 141.719 51.7696 142.218 53.9088C142.718 56.0481 143.502 57.9377 144.572 59.5778C145.641 61.1466 146.96 62.3945 148.529 63.3215C150.169 64.2485 152.095 64.712 154.305 64.712C156.516 64.712 158.405 64.2485 159.974 63.3215C161.614 62.3945 162.969 61.1466 164.039 59.5778C165.108 57.9377 165.893 56.0481 166.392 53.9088C166.891 51.7696 167.141 49.4877 167.141 47.0633Z" fill="white"/>
<path d="M310 73.8038H296.63V36.2601H296.095L284.222 73.8038H270.959L259.086 36.2601H258.551V73.8038H245.181V20.3228H266.787L277.591 57.3316L288.394 20.3228H310V73.8038Z" fill="white"/>
<line x1="221.45" y1="64.6739" x2="244.059" y2="87.283" stroke="#FF5050" stroke-width="10.6962"/>
<path d="M232.375 48.4005C232.375 60.5263 223.092 69.7929 212.32 69.7929C201.547 69.7929 192.264 60.5263 192.264 48.4005C192.264 36.2747 201.547 27.0081 212.32 27.0081C223.092 27.0081 232.375 36.2747 232.375 48.4005Z" stroke="#FF5050" stroke-width="13.3702"/>
</svg>
